<svg width="30" height="30" viewBox="0 0 100 100" fill="none" xmlns="http://www.w3.org/2000/svg">
<g id="instagram">
<path id="Vector" d="M74.9458 44.667C74.9458 57.9847 63.7778 68.7809 50.0014 68.7809C36.225 68.7809 25.057 57.9847 25.057 44.667V44.667C25.057 39.682 21.6882 34.2105 16.7032 34.2105H10C4.47719 34.2105 3.26554e-05 38.6877 4.16894e-05 44.2106L0.000100003 79.8604L7.44828e-05 84.9999C3.33471e-05 93.2842 6.71578 100 15.0001 100H85C93.2843 100 100 93.2843 100 85L100 79.8604V44.2106C100 38.6877 95.5228 34.2105 90 34.2105H83.2988C78.3211 34.2105 74.9415 39.6894 74.9458 44.667V44.667Z" fill="black"/>
<path id="Vector_2" d="M90.2778 0H9.72222C4.375 0 0 4.14474 0 9.21053V27.6316H30.0903C34.6431 21.9092 41.8542 18.1947 50 18.1947C58.1458 18.1947 65.3569 21.9092 69.9097 27.6316H100V9.21053C100 4.14474 95.625 0 90.2778 0ZM7.99444 23.3105H4.375V10.0276C4.37488 8.92522 4.71847 7.84733 5.36263 6.92924C6.0068 6.01115 6.92286 5.29376 7.99583 4.8671L7.99444 23.3105ZM13.925 23.3105H10.4958V4.43158H13.925V23.3105ZM19.8542 23.3105H16.425V4.43158H19.8542V23.3105ZM25.7792 10.0276V23.3105H22.3542V4.43158H25.7792V10.0276ZM94.9319 17.7145C94.9321 18.4492 94.7796 19.1767 94.4829 19.8556C94.1863 20.5344 93.7515 21.1513 93.2032 21.6709C92.655 22.1906 92.0041 22.6028 91.2876 22.8841C90.5712 23.1655 89.8033 23.3104 89.0278 23.3105H79.4319C78.6563 23.3105 77.8882 23.1658 77.1717 22.8845C76.4551 22.6033 75.804 22.1911 75.2556 21.6714C74.7072 21.1517 74.2722 20.5348 73.9755 19.8559C73.6788 19.177 73.5262 18.4493 73.5264 17.7145V10.0276C73.5262 9.29281 73.6788 8.56515 73.9755 7.88621C74.2722 7.20728 74.7072 6.59036 75.2556 6.0707C75.804 5.55105 76.4551 5.13882 77.1717 4.85758C77.8882 4.57633 78.6563 4.43158 79.4319 4.43158H89.0278C89.8034 4.43158 90.5713 4.57635 91.2878 4.85761C92.0044 5.13887 92.6553 5.55111 93.2036 6.07078C93.7519 6.59046 94.1868 7.20739 94.4833 7.88631C94.7799 8.56524 94.9323 9.29287 94.9319 10.0276V17.7145Z" fill="black"/>
<path id="Vector_3" d="M49.7501 63.9987C61.8834 63.9987 71.7195 54.6763 71.7195 43.1842C71.7195 31.6908 61.8848 22.3684 49.7501 22.3684C37.6139 22.3684 27.7778 31.6908 27.7778 43.1842C27.7778 54.675 37.6139 63.9987 49.7501 63.9987V63.9987ZM49.7487 26.6C59.4153 26.6 67.2542 34.025 67.2542 43.1842C67.2542 52.3421 59.4167 59.7684 49.7487 59.7684C40.0806 59.7684 32.2431 52.3434 32.2431 43.1842C32.2445 34.0237 40.082 26.6 49.7487 26.6Z" fill="black"/>
</g>
</svg>
