<svg width="286" height="59" viewBox="0 0 286 59" fill="none" xmlns="http://www.w3.org/2000/svg">
<g id="logo">
<g id="sundog-modern-logo-nav">
<path id="Polygon 1" d="M50.7978 11.7189L34.25 2.16506C31.3107 0.468052 27.6893 0.468052 24.75 2.16506L8.20225 11.7189C5.26294 13.4159 3.45225 16.5521 3.45225 19.9462V39.0538C3.45225 42.4479 5.26294 45.5841 8.20225 47.2811L24.75 56.8349C27.6893 58.5319 31.3107 58.5319 34.25 56.8349L50.7978 47.2811C53.7371 45.5841 55.5478 42.4479 55.5478 39.0538V19.9462C55.5478 16.5521 53.7371 13.4159 50.7978 11.7189Z" fill="#4B4B4B" stroke="#F1F1F1"/>
<path id="Vector 3" d="M25.7588 34C25.7588 34.4212 25.4173 34.7627 24.9961 34.7627C24.5748 34.7627 24.2333 34.4212 24.2333 34H25.7588ZM24.2333 39C24.2333 38.5788 24.5748 38.2373 24.9961 38.2373C25.4173 38.2373 25.7588 38.5788 25.7588 39H24.2333ZM32.9739 30.7038C34.4967 31.6187 36.255 33.377 36.255 36.5H34.7296C34.7296 34.0711 33.4067 32.7434 32.1883 32.0114L32.9739 30.7038ZM25.3502 22.6565C25.4953 21.455 25.8441 20.4712 26.81 19.8808C27.6808 19.3485 28.9191 19.2373 30.4941 19.2373V20.7627C28.8832 20.7627 28.0638 20.9022 27.6056 21.1823C27.2424 21.4043 26.9908 21.7945 26.8647 22.8394L25.3502 22.6565ZM30.4941 19.2373C31.752 19.2373 32.7709 19.2983 33.5726 19.5032C34.4018 19.7152 35.0571 20.0967 35.5022 20.7645C35.923 21.3958 36.0926 22.1935 36.1739 23.0957C36.2558 24.0048 36.255 25.1384 36.255 26.5L34.7296 26.5C34.7296 25.1116 34.7289 24.0577 34.6546 23.2325C34.5796 22.4002 34.4369 21.9167 34.2329 21.6105C34.0532 21.3408 33.7713 21.1285 33.1948 20.9811C32.5907 20.8267 31.7352 20.7627 30.4941 20.7627V19.2373ZM24.2333 34V26.5H25.7588V34H24.2333ZM24.2333 26.5V14H25.7588V26.5H24.2333ZM24.2333 42.0009V39H25.7588V42.0009H24.2333ZM36.255 36.5V42.0009H34.7296V36.5H36.255ZM30.4941 45.2627H27.4952V43.7373H30.4941V45.2627ZM32.9932 45.2627H30.4941V43.7373H32.9932V45.2627ZM36.255 42.0009C36.255 43.8023 34.7947 45.2627 32.9932 45.2627V43.7373C33.9522 43.7373 34.7296 42.9599 34.7296 42.0009H36.255ZM29.3075 28.4243C29.8041 28.8659 30.3787 29.2352 31.0097 29.5978C31.6021 29.9382 32.344 30.3254 32.9739 30.7038L32.1883 32.0114C31.5462 31.6256 30.9524 31.3242 30.2497 30.9204C29.5858 30.5389 28.9061 30.1086 28.2939 29.5642L29.3075 28.4243ZM25.7588 42.0009C25.7588 42.9599 26.5362 43.7373 27.4952 43.7373V45.2627C25.6937 45.2627 24.2333 43.8023 24.2333 42.0009H25.7588ZM28.2939 29.5642C26.3826 27.8646 25.0256 25.345 25.3502 22.6565L26.8647 22.8394C26.6169 24.8916 27.6504 26.9507 29.3075 28.4243L28.2939 29.5642Z" fill="#3DFFA1"/>
<path id="Vector 4" d="M14.0111 28.5L14.7752 28.5373L14.777 28.499L14.7751 28.4608L14.0111 28.5ZM45.765 36.5C45.765 36.0775 45.4225 35.735 45 35.735C44.5775 35.735 44.235 36.0775 44.235 36.5H45.765ZM45 20.5C45.765 20.5 45.765 20.4995 45.765 20.4989C45.765 20.4986 45.765 20.498 45.765 20.4975C45.765 20.4965 45.765 20.4953 45.765 20.494C45.765 20.4913 45.7649 20.4879 45.7649 20.4837C45.7648 20.4755 45.7647 20.4646 45.7644 20.4509C45.7638 20.4236 45.7627 20.3856 45.7606 20.3376C45.7564 20.2416 45.7483 20.1055 45.7324 19.9349C45.7007 19.594 45.6378 19.1139 45.5133 18.5407C45.2646 17.3964 44.7667 15.8664 43.7665 14.3322C41.7362 11.2179 37.7329 8.235 30.0054 8.235L30.0054 9.765C37.2724 9.765 40.7665 12.5321 42.4848 15.1678C43.359 16.5086 43.7982 17.8536 44.0182 18.8656C44.1279 19.3705 44.1822 19.7888 44.209 20.0768C44.2224 20.2207 44.2289 20.3316 44.2321 20.4041C44.2336 20.4403 44.2344 20.4669 44.2347 20.4831C44.2349 20.4912 44.235 20.4967 44.235 20.4996C44.235 20.501 44.235 20.5018 44.235 20.5018C44.235 20.5019 44.235 20.5017 44.235 20.5014C44.235 20.5013 44.235 20.5009 44.235 20.5008C44.235 20.5004 44.235 20.5 45 20.5ZM30.0054 8.235C25.5996 8.235 22.3038 9.503 19.8604 11.4484C17.4279 13.3852 15.8917 15.952 14.9215 18.4755C13.9514 20.9986 13.5347 23.5097 13.3588 25.3815C13.2706 26.3196 13.2424 27.1027 13.2364 27.6537C13.2333 27.9293 13.2358 28.1473 13.2392 28.298C13.2409 28.3734 13.2427 28.4319 13.2443 28.4725C13.245 28.4928 13.2457 28.5086 13.2462 28.5198C13.2464 28.5253 13.2466 28.5298 13.2468 28.533C13.2469 28.5346 13.2469 28.5359 13.247 28.537C13.247 28.5375 13.247 28.538 13.247 28.5383C13.2471 28.5388 13.2471 28.5392 14.0111 28.5C14.7751 28.4608 14.7751 28.4611 14.7751 28.4613C14.7751 28.4612 14.7751 28.4613 14.7751 28.4612C14.7751 28.4611 14.7751 28.4606 14.775 28.4599C14.775 28.4584 14.7748 28.4558 14.7747 28.452C14.7743 28.4444 14.7738 28.4322 14.7732 28.4156C14.772 28.3824 14.7703 28.3315 14.7688 28.264C14.7658 28.1291 14.7634 27.9281 14.7663 27.6705C14.7719 27.1551 14.7984 26.4147 14.8821 25.5247C15.0498 23.7403 15.4453 21.3764 16.3495 19.0245C17.2536 16.673 18.6539 14.3648 20.8135 12.6453C22.9622 10.9345 25.9142 9.765 30.0054 9.765L30.0054 8.235ZM14.0111 28.5C13.247 28.4627 13.247 28.4631 13.2469 28.4636C13.2469 28.4639 13.2469 28.4644 13.2469 28.4649C13.2468 28.466 13.2468 28.4673 13.2467 28.469C13.2465 28.4723 13.2463 28.4768 13.2461 28.4826C13.2456 28.4942 13.245 28.5106 13.2442 28.5318C13.2427 28.574 13.2408 28.6352 13.2392 28.7141C13.2358 28.8717 13.2333 29.1 13.2364 29.3889C13.2424 29.9663 13.2705 30.7874 13.3585 31.7712C13.534 33.7345 13.9497 36.3676 14.917 39.0128C15.8841 41.657 17.416 44.3496 19.8459 46.3835C22.2889 48.4283 25.5898 49.765 30.0054 49.765V48.235C25.924 48.235 22.9771 47.0092 20.828 45.2103C18.6658 43.4004 17.2612 40.968 16.354 38.4872C15.447 36.0074 15.0505 33.5155 14.8824 31.635C14.7985 30.697 14.772 29.9165 14.7663 29.3729C14.7634 29.1012 14.7658 28.889 14.7688 28.7464C14.7703 28.6751 14.772 28.6211 14.7732 28.5859C14.7739 28.5682 14.7744 28.5553 14.7747 28.5471C14.7749 28.543 14.775 28.5402 14.7751 28.5385C14.7751 28.5377 14.7752 28.5372 14.7752 28.537C14.7752 28.5369 14.7752 28.5369 14.7752 28.5369C14.7752 28.537 14.7752 28.5373 14.0111 28.5ZM30.0054 49.765C37.762 49.765 41.7643 46.507 43.7817 43.1435C44.7756 41.4865 45.2694 39.8356 45.5159 38.6031C45.6394 37.9855 45.7015 37.4686 45.7329 37.1024C45.7486 36.9192 45.7566 36.7733 45.7607 36.6709C45.7628 36.6197 45.7638 36.5794 45.7644 36.5507C45.7647 36.5363 45.7648 36.5248 45.7649 36.5163C45.765 36.5121 45.765 36.5086 45.765 36.5059C45.765 36.5045 45.765 36.5034 45.765 36.5024C45.765 36.5019 45.765 36.5013 45.765 36.501C45.765 36.5005 45.765 36.5 45 36.5C44.235 36.5 44.235 36.4996 44.235 36.4992C44.235 36.4992 44.235 36.4989 44.235 36.4988C44.235 36.4985 44.235 36.4985 44.235 36.4987C44.235 36.499 44.235 36.5 44.235 36.5018C44.2349 36.5053 44.2349 36.5118 44.2347 36.5211C44.2343 36.5396 44.2336 36.5695 44.232 36.6098C44.2287 36.6906 44.2221 36.8132 44.2085 36.9718C44.1813 37.2892 44.1264 37.7489 44.0156 38.3031C43.7934 39.4144 43.3501 40.8885 42.4696 42.3565C40.7383 45.243 37.2434 48.235 30.0054 48.235V49.765Z" fill="#3DFFA1"/>
</g>
<path id="SundogbyChuck" d="M105.434 31.82C105.434 27.12 98.4941 28.22 98.4941 25.78C98.4941 24.9 99.1141 24.48 99.9341 24.5C100.854 24.52 101.494 25.06 101.554 25.96H105.254C105.114 23.28 103.054 21.76 99.9941 21.76C97.0541 21.76 94.8741 23.24 94.8741 25.9C94.8341 30.88 101.854 29.48 101.854 32.08C101.854 32.9 101.214 33.4 100.214 33.4C99.2541 33.4 98.5741 32.88 98.4741 31.8H94.8341C94.9341 34.64 97.2941 36.14 100.314 36.14C103.594 36.14 105.434 34.18 105.434 31.82ZM119.559 24.84H116.139V30.9C116.139 32.42 115.299 33.26 113.979 33.26C112.699 33.26 111.839 32.42 111.839 30.9V24.84H108.439V31.36C108.439 34.34 110.179 36.12 112.759 36.12C114.259 36.12 115.459 35.44 116.139 34.48V36H119.559V24.84ZM130.715 36H134.115V29.48C134.115 26.48 132.395 24.72 129.815 24.72C128.315 24.72 127.115 25.38 126.435 26.32V24.84H123.015V36H126.435V29.94C126.435 28.42 127.275 27.58 128.575 27.58C129.875 27.58 130.715 28.42 130.715 29.94V36ZM136.812 30.4C136.812 33.92 138.992 36.16 141.732 36.16C143.372 36.16 144.552 35.42 145.172 34.4V36H148.592V21.2H145.172V26.38C144.492 25.36 143.212 24.68 141.732 24.68C138.992 24.68 136.812 26.88 136.812 30.4ZM145.172 30.42C145.172 32.2 144.032 33.18 142.732 33.18C141.452 33.18 140.292 32.18 140.292 30.4C140.292 28.62 141.452 27.66 142.732 27.66C144.032 27.66 145.172 28.64 145.172 30.42ZM162.986 30.42C162.986 26.88 160.466 24.68 157.186 24.68C153.926 24.68 151.386 26.88 151.386 30.42C151.386 33.96 153.866 36.16 157.146 36.16C160.426 36.16 162.986 33.96 162.986 30.42ZM154.866 30.42C154.866 28.52 155.946 27.64 157.186 27.64C158.386 27.64 159.506 28.52 159.506 30.42C159.506 32.3 158.366 33.2 157.146 33.2C155.906 33.2 154.866 32.3 154.866 30.42ZM165.121 30.4C165.121 33.92 167.301 36.16 170.041 36.16C171.681 36.16 172.861 35.38 173.481 34.4V35.98C173.481 37.86 172.461 38.54 171.161 38.54C169.981 38.54 169.141 38 168.921 37.16H165.541C165.841 39.82 168.001 41.5 171.321 41.5C175.181 41.5 176.901 38.96 176.901 35.98V24.84H173.481V26.42C172.881 25.42 171.681 24.68 170.041 24.68C167.301 24.68 165.121 26.88 165.121 30.4ZM173.481 30.42C173.481 32.2 172.341 33.18 171.041 33.18C169.761 33.18 168.601 32.18 168.601 30.4C168.601 28.62 169.761 27.66 171.041 27.66C172.341 27.66 173.481 28.64 173.481 30.42ZM183.795 26.42V21.2H180.375V36H183.795V34.44C184.415 35.42 185.595 36.16 187.235 36.16C189.975 36.16 192.155 33.92 192.155 30.4C192.155 26.88 189.995 24.68 187.235 24.68C185.635 24.68 184.415 25.42 183.795 26.42ZM188.675 30.4C188.675 32.18 187.515 33.18 186.215 33.18C184.935 33.18 183.775 32.2 183.775 30.42C183.775 28.64 184.935 27.66 186.215 27.66C187.515 27.66 188.675 28.62 188.675 30.4ZM200.089 31.82L197.509 24.84H193.689L198.229 35.62L195.669 41.3H199.349L206.349 24.84H202.649L200.089 31.82ZM208.006 28.96C208.006 33.16 210.926 36.1 215.066 36.1C218.406 36.1 220.926 34.24 221.726 31.2H217.966C217.386 32.4 216.326 33 215.026 33C212.926 33 211.486 31.44 211.486 28.96C211.486 26.48 212.926 24.92 215.026 24.92C216.326 24.92 217.386 25.52 217.966 26.72H221.726C220.926 23.68 218.406 21.8 215.066 21.8C210.926 21.8 208.006 24.76 208.006 28.96ZM224.82 36H228.24V29.94C228.24 28.42 229.08 27.58 230.38 27.58C231.68 27.58 232.52 28.42 232.52 29.94V36H235.92V29.48C235.92 26.48 234.22 24.72 231.68 24.72C230.14 24.72 228.92 25.38 228.24 26.34V21.2H224.82V36ZM250.317 24.84H246.897V30.9C246.897 32.42 246.057 33.26 244.737 33.26C243.457 33.26 242.597 32.42 242.597 30.9V24.84H239.197V31.36C239.197 34.34 240.937 36.12 243.517 36.12C245.017 36.12 246.217 35.44 246.897 34.48V36H250.317V24.84ZM253.093 30.42C253.093 33.96 255.413 36.16 258.693 36.16C261.493 36.16 263.473 34.54 264.053 31.96H260.413C260.113 32.78 259.573 33.24 258.633 33.24C257.413 33.24 256.573 32.28 256.573 30.42C256.573 28.56 257.413 27.6 258.633 27.6C259.573 27.6 260.133 28.1 260.413 28.88H264.053C263.473 26.22 261.493 24.68 258.693 24.68C255.413 24.68 253.093 26.9 253.093 30.42ZM266.883 36H270.303V31.32L273.703 36H277.943L273.263 30.44L277.903 24.84H273.683L270.303 29.38V21.2H266.883V36Z" fill="#3DFFAB"/>
</g>
</svg>
