<svg width="175" height="196" viewBox="0 0 175 196" fill="none" xmlns="http://www.w3.org/2000/svg">
<g id="button">
<rect id="Rectangle 32" x="48" y="67" width="73" height="126" rx="24" stroke="#F1F1F1" stroke-width="6"/>
<path id="Meet Chuck" d="M13.4941 43H16.8541V32.104L21.3661 43H23.9101L28.3981 32.104V43H31.7581V26.248H27.9661L22.6381 38.704L17.3101 26.248H13.4941V43ZM41.5121 32.248C43.2401 32.248 44.6321 33.352 44.6801 35.104H38.3681C38.6321 33.28 39.9041 32.248 41.5121 32.248ZM47.8241 38.824H44.2001C43.7681 39.712 42.9761 40.432 41.5361 40.432C39.8561 40.432 38.5121 39.328 38.3441 37.36H48.0641C48.1361 36.928 48.1601 36.496 48.1601 36.064C48.1601 32.104 45.4481 29.488 41.6081 29.488C37.6721 29.488 34.9361 32.152 34.9361 36.352C34.9361 40.528 37.7441 43.216 41.6081 43.216C44.8961 43.216 47.1041 41.272 47.8241 38.824ZM57.0446 32.248C58.7726 32.248 60.1646 33.352 60.2126 35.104H53.9006C54.1646 33.28 55.4366 32.248 57.0446 32.248ZM63.3566 38.824H59.7326C59.3006 39.712 58.5086 40.432 57.0686 40.432C55.3886 40.432 54.0446 39.328 53.8766 37.36H63.5966C63.6686 36.928 63.6926 36.496 63.6926 36.064C63.6926 32.104 60.9806 29.488 57.1406 29.488C53.2046 29.488 50.4686 32.152 50.4686 36.352C50.4686 40.528 53.2766 43.216 57.1406 43.216C60.4286 43.216 62.6366 41.272 63.3566 38.824ZM67.3931 38.872C67.3931 41.92 69.0971 43 71.6411 43H73.7531V40.168H72.1931C71.1371 40.168 70.7771 39.784 70.7771 38.896V32.464H73.7531V29.704H70.7771V26.416H67.3931V29.704H65.8091V32.464H67.3931V38.872ZM82.5125 34.6C82.5125 39.616 86.1845 43.144 91.0085 43.144C94.7285 43.144 97.7525 41.176 98.8805 37.72H95.0165C94.2245 39.352 92.7845 40.144 90.9845 40.144C88.0565 40.144 85.9685 37.984 85.9685 34.6C85.9685 31.192 88.0565 29.056 90.9845 29.056C92.7845 29.056 94.2245 29.848 95.0165 31.456H98.8805C97.7525 28.024 94.7285 26.032 91.0085 26.032C86.1845 26.032 82.5125 29.584 82.5125 34.6ZM102.47 43H105.83V35.656C105.83 33.52 107.006 32.368 108.83 32.368C110.606 32.368 111.782 33.52 111.782 35.656V43H115.142V35.2C115.142 31.528 112.958 29.512 109.958 29.512C108.182 29.512 106.694 30.232 105.83 31.36V25.24H102.47V43ZM131.61 29.704H128.226V37.024C128.226 39.16 127.074 40.312 125.25 40.312C123.474 40.312 122.298 39.16 122.298 37.024V29.704H118.938V37.504C118.938 41.152 121.17 43.168 124.266 43.168C125.922 43.168 127.386 42.448 128.226 41.32V43H131.61V29.704ZM134.781 36.352C134.781 40.528 137.517 43.216 141.357 43.216C144.669 43.216 146.901 41.344 147.621 38.512H143.997C143.589 39.712 142.725 40.336 141.333 40.336C139.461 40.336 138.213 38.944 138.213 36.352C138.213 33.76 139.461 32.344 141.333 32.344C142.725 32.344 143.613 33.064 143.997 34.192H147.621C146.901 31.216 144.669 29.488 141.357 29.488C137.517 29.488 134.781 32.176 134.781 36.352ZM150.802 43H154.162V37.336L158.674 43H163.042L157.138 36.376L162.994 29.704H158.626L154.162 35.344V25.24H150.802V43Z" fill="#51FFAB"/>
<path id="Polygon 2" d="M80.8932 149.086C82.8821 151.95 87.1179 151.95 89.1069 149.086L104.547 126.852C106.85 123.536 104.477 119 100.44 119H97.5V85C97.5 82.2386 95.2614 80 92.5 80H85H77.5C74.7386 80 72.5 82.2386 72.5 85V119H69.5596C65.523 119 63.1503 123.536 65.4528 126.852L80.8932 149.086Z" fill="#F1F1F1"/>
</g>
</svg>
