<svg width="32" height="32" viewBox="0 0 291 291" fill="none" xmlns="http://www.w3.org/2000/svg">
<path d="M267.257 69.7189L150.25 2.16506C147.311 0.468051 143.689 0.46805 140.75 2.16506L23.7433 69.7189C20.804 71.4159 18.9933 74.5521 18.9933 77.9461V213.054C18.9933 216.448 20.804 219.584 23.7433 221.281L140.75 288.835C143.689 290.532 147.311 290.532 150.25 288.835L267.257 221.281C270.196 219.584 272.007 216.448 272.007 213.054V77.9461C272.007 74.5521 270.196 71.4159 267.257 69.7189Z" fill="#4B4B4B" stroke="#F1F1F1"/>
<path d="M171.77 174.975L170.27 174.975L171.77 174.975ZM121.5 162.644C121.5 163.472 120.828 164.144 120 164.144C119.172 164.144 118.5 163.472 118.5 162.644H121.5ZM118.5 187.305C118.5 186.477 119.172 185.805 120 185.805C120.828 185.805 121.5 186.477 121.5 187.305H118.5ZM143.518 141.659L143.872 140.201L143.518 141.659ZM145.891 142.305L146.358 140.88L145.891 142.305ZM120.354 134.491L143.872 140.201L143.164 143.116L119.646 137.407L120.354 134.491ZM146.358 140.88C149.052 141.763 155.736 144.322 161.771 149.621C167.84 154.95 173.27 163.077 173.27 174.975L170.27 174.975C170.27 164.12 165.36 156.765 159.791 151.875C154.187 146.953 147.931 144.553 145.423 143.731L146.358 140.88ZM118.5 135.949C118.5 130.971 118.488 120.129 121.98 110.509C123.732 105.68 126.399 101.066 130.478 97.6545C134.582 94.2217 140.014 92.0932 147.117 92.0932V95.0932C140.662 95.0932 135.925 97.0092 132.403 99.9557C128.854 102.924 126.437 107.023 124.8 111.533C121.512 120.591 121.5 130.928 121.5 135.949H118.5ZM147.117 92.0932C153.638 92.0932 158.61 94.2252 162.352 97.4691C166.064 100.688 168.493 104.935 170.088 109.085C171.686 113.239 172.478 117.373 172.872 120.453C173.07 121.996 173.169 123.285 173.219 124.193C173.244 124.647 173.257 125.006 173.263 125.254C173.266 125.378 173.268 125.475 173.269 125.542C173.269 125.575 173.269 125.602 173.27 125.62C173.27 125.629 173.27 125.637 173.27 125.642C173.27 125.645 173.27 125.647 173.27 125.649C173.27 125.65 173.27 125.651 173.27 125.651C173.27 125.652 173.27 125.653 171.77 125.653C170.27 125.653 170.27 125.653 170.27 125.653C170.27 125.653 170.27 125.653 170.27 125.653C170.27 125.653 170.27 125.652 170.27 125.651C170.27 125.649 170.27 125.645 170.27 125.638C170.27 125.626 170.269 125.606 170.269 125.579C170.268 125.525 170.267 125.442 170.264 125.331C170.258 125.11 170.247 124.78 170.224 124.357C170.177 123.511 170.084 122.296 169.897 120.834C169.521 117.903 168.772 114.021 167.288 110.161C165.802 106.296 163.608 102.528 160.387 99.7358C157.195 96.9687 152.922 95.0932 147.117 95.0932V92.0932ZM118.5 162.644V135.949H121.5V162.644H118.5ZM118.5 135.949V64H121.5V135.949H118.5ZM118.5 200.218V187.305H121.5V200.218H118.5ZM173.27 174.975V203.377H170.27V174.975H173.27ZM147.117 215.932H134.214V212.932H147.117V215.932ZM160.714 215.932H147.117V212.932H160.714V215.932ZM121.5 200.218C121.5 207.24 127.192 212.932 134.214 212.932V215.932C125.536 215.932 118.5 208.897 118.5 200.218H121.5ZM173.27 203.377C173.27 210.311 167.648 215.932 160.714 215.932V212.932C165.992 212.932 170.27 208.654 170.27 203.377H173.27ZM143.872 140.201C144.667 140.394 145.516 140.604 146.358 140.88L145.423 143.731C144.707 143.496 143.964 143.311 143.164 143.116L143.872 140.201Z" fill="#ffffff"/>
<path d="M69.0546 142.178L70.5529 142.251L70.5565 142.176L70.5527 142.101L69.0546 142.178ZM223.398 181.636C223.398 180.807 222.727 180.136 221.898 180.136C221.07 180.136 220.398 180.807 220.398 181.636H223.398ZM221.898 102.72C223.398 102.72 223.398 102.719 223.398 102.718C223.398 102.717 223.398 102.715 223.398 102.714C223.398 102.711 223.398 102.707 223.398 102.702C223.398 102.693 223.398 102.68 223.398 102.664C223.398 102.631 223.397 102.585 223.396 102.526C223.393 102.408 223.388 102.237 223.379 102.018C223.36 101.58 223.322 100.946 223.247 100.144C223.098 98.5412 222.801 96.265 222.209 93.5392C221.025 88.092 218.656 80.8205 213.91 73.541C204.36 58.8917 185.371 44.5 147.942 44.5L147.942 47.5C184.469 47.5 202.458 61.4685 211.397 75.1794C215.896 82.0799 218.15 88.9885 219.277 94.1763C219.84 96.7681 220.121 98.9231 220.26 100.422C220.33 101.172 220.365 101.756 220.382 102.148C220.39 102.345 220.394 102.493 220.396 102.589C220.397 102.637 220.398 102.673 220.398 102.695C220.398 102.706 220.398 102.713 220.398 102.718C220.398 102.72 220.398 102.721 220.398 102.722C220.398 102.722 220.398 102.721 220.398 102.722C220.398 102.721 220.398 102.72 221.898 102.72ZM147.942 44.5C126.679 44.5 110.934 50.6077 99.3208 59.8543C87.7285 69.0842 80.3537 81.3598 75.6666 93.5507C70.9797 105.741 68.956 117.907 68.1005 127.01C67.6724 131.565 67.5359 135.364 67.5066 138.029C67.4919 139.361 67.5041 140.411 67.5201 141.131C67.5281 141.491 67.537 141.769 67.5441 141.958C67.5476 142.052 67.5506 142.125 67.5529 142.175C67.554 142.2 67.5548 142.219 67.5555 142.232C67.5558 142.239 67.5561 142.244 67.5563 142.248C67.5563 142.25 67.5564 142.251 67.5565 142.252C67.5565 142.254 67.5566 142.255 69.0546 142.178C70.5527 142.101 70.5527 142.101 70.5527 142.101C70.5526 142.101 70.5526 142.1 70.5526 142.099C70.5525 142.097 70.5523 142.094 70.5521 142.089C70.5516 142.079 70.5509 142.063 70.5499 142.042C70.548 141.999 70.5453 141.934 70.542 141.846C70.5355 141.672 70.527 141.409 70.5194 141.065C70.5041 140.376 70.4921 139.359 70.5064 138.062C70.5349 135.467 70.6681 131.752 71.0873 127.291C71.9267 118.36 73.909 106.482 78.4667 94.6273C83.0242 82.7737 90.1326 71.0048 101.189 62.2013C112.225 53.4146 127.296 47.5 147.942 47.5L147.942 44.5ZM69.0546 142.178C67.5564 142.105 67.5564 142.106 67.5563 142.107C67.5563 142.108 67.5562 142.11 67.5561 142.112C67.5559 142.116 67.5556 142.121 67.5553 142.128C67.5547 142.142 67.5538 142.162 67.5527 142.188C67.5505 142.24 67.5475 142.316 67.544 142.415C67.537 142.613 67.528 142.904 67.5201 143.282C67.5041 144.037 67.4919 145.139 67.5066 146.538C67.5358 149.336 67.6722 153.326 68.0999 158.11C68.9546 167.67 70.9764 180.447 75.6579 193.248C80.3388 206.047 87.7052 218.941 99.2923 228.64C110.905 238.36 126.66 244.788 147.942 244.788V241.788C127.315 241.788 112.254 235.577 101.218 226.339C90.1558 217.08 83.0391 204.696 78.4754 192.218C73.9124 179.741 71.9281 167.241 71.088 157.843C70.6683 153.148 70.535 149.238 70.5064 146.507C70.4921 145.141 70.5041 144.071 70.5194 143.345C70.5271 142.982 70.5356 142.705 70.5421 142.521C70.5454 142.429 70.5481 142.36 70.55 142.314C70.551 142.292 70.5517 142.275 70.5522 142.265C70.5525 142.259 70.5526 142.255 70.5528 142.253C70.5528 142.252 70.5528 142.252 70.5529 142.251C70.5529 142.251 70.5529 142.251 69.0546 142.178ZM147.942 244.788C185.428 244.788 204.415 229.114 213.94 213.233C218.674 205.342 221.034 197.462 222.214 191.563C222.804 188.611 223.1 186.146 223.248 184.413C223.323 183.546 223.36 182.861 223.379 182.388C223.388 182.151 223.393 181.968 223.396 181.841C223.397 181.778 223.398 181.729 223.398 181.695C223.398 181.677 223.398 181.664 223.398 181.654C223.398 181.649 223.398 181.645 223.398 181.642C223.398 181.64 223.398 181.639 223.398 181.638C223.398 181.637 223.398 181.636 221.898 181.636C220.398 181.636 220.398 181.635 220.398 181.635C220.398 181.635 220.398 181.635 220.398 181.635C220.398 181.636 220.398 181.637 220.398 181.64C220.398 181.645 220.398 181.654 220.398 181.666C220.398 181.691 220.397 181.73 220.396 181.783C220.394 181.89 220.39 182.053 220.381 182.268C220.364 182.698 220.329 183.338 220.259 184.157C220.119 185.795 219.837 188.147 219.272 190.975C218.14 196.636 215.878 204.169 211.367 211.69C202.403 226.636 184.412 241.788 147.942 241.788V244.788Z" fill="#ffffff"/>
</svg>
